HIERARCHY
ROOT Hips
{
  OFFSET -6.31025 38.3438 31.8191
  CHANNELS 6 Xposition Yposition Zposition Zrotation Xrotation Yrotation
  JOINT LeftHip
  {
    OFFSET 3.43 0 0
    CHANNELS 3 Zrotation Xrotation Yrotation
    JOINT LeftKnee
    {
      OFFSET 0 -18.47 0
      CHANNELS 3 Zrotation Xrotation Yrotation
      JOINT LeftAnkle
      {
        OFFSET 0 -17.95 0
        CHANNELS 3 Zrotation Xrotation Yrotation
        End Site
        {
          OFFSET 0 -3.12 0
        }
      }
    }
  }
  JOINT RightHip
  {
    OFFSET -3.43 0 0
    CHANNELS 3 Zrotation Xrotation Yrotation
    JOINT RightKnee
    {
      OFFSET 0 -18.47 0
      CHANNELS 3 Zrotation Xrotation Yrotation
      JOINT RightAnkle
      {
        OFFSET 0 -17.95 0
        CHANNELS 3 Zrotation Xrotation Yrotation
        End Site
        {
          OFFSET 0 -3.12 0
        }
      }
    }
  }
  JOINT Chest
  {
    OFFSET 0 4.57 0
    CHANNELS 3 Zrotation Xrotation Yrotation
    JOINT CS_BVH
    {
      OFFSET 0 6.57 0
      CHANNELS 3 Zrotation Xrotation Yrotation
      JOINT LeftCollar
      {
        OFFSET 1.06 4.19 1.76
        CHANNELS 3 Zrotation Xrotation Yrotation
        JOINT LeftShoulder
        {
          OFFSET 5.81 0 0
          CHANNELS 3 Zrotation Xrotation Yrotation
          JOINT LeftElbow
          {
            OFFSET 0 -12.08 0
            CHANNELS 3 Zrotation Xrotation Yrotation
            JOINT LeftWrist
            {
              OFFSET 0 -9.82 0
              CHANNELS 3 Zrotation Xrotation Yrotation
              End Site
              {
                OFFSET 0 -7.37 0
              }
            }
          }
        }
      }
      JOINT RightCollar
      {
        OFFSET -1.06 4.19 1.76
        CHANNELS 3 Zrotation Xrotation Yrotation
        JOINT RightShoulder
        {
          OFFSET -6.06 0 0
          CHANNELS 3 Zrotation Xrotation Yrotation
          JOINT RightElbow
          {
            OFFSET 0 -11.08 0
            CHANNELS 3 Zrotation Xrotation Yrotation
            JOINT RightWrist
            {
              OFFSET 0 -9.82 0
              CHANNELS 3 Zrotation Xrotation Yrotation
              End Site
              {
                OFFSET 0 -7.14001 0
              }
            }
          }
        }
      }
      JOINT Neck
      {
        OFFSET 0 4.05 0
        CHANNELS 3 Zrotation Xrotation Yrotation
        JOINT Head
        {
          OFFSET 0 5.19 0
          CHANNELS 3 Zrotation Xrotation Yrotation
          End Site
          {
            OFFSET 0 4.14001 0
          }
        }
      }
    }
  }
}
MOTION
Frames:	18
Frame Time:	0.0333333
23.795 38.325 -34.5303 1.73989 2.60003 -31.3621 -1.95999 -20.6689 -0.907193 0.0304052 49.9455 -0.262313 -0.0368807 -30.202 7.36504 -8.67718 -27.5198 2.64121 0.027443 53.1375 0.158547 1.2459 -24.3083 -6.25843 -3.09175 6.61944 1.87392 4.96681 -2.42684 0.643229 10 -5.93124e-014 1.09207e-014 -3.56389 -5.04765 -6.48769 13.9389 -21.9708 4.44782 -0.119798 -1.14488 -15.432 -10 -5.80203e-014 -8.97637e-015 -1.56203 -2.34765 2.80828 -20.2813 -29.3965 -8.48379 0.111724 1.25951 -12.6481 -14.6268 -10.422 -4.88687 27.3455 39.6219 -17.3112 
23.9213 38.3253 -34.5188 1.81527 2.2017 -33.0233 -2.27629 -20.2185 -0.244576 0.0337438 49.8074 -0.259867 0.400895 -30.2372 8.45935 -8.57957 -27.7334 3.68227 0.0263376 53.1548 0.160866 1.42442 -23.9729 -5.77407 -3.44385 7.21793 0.573648 5.18914 -2.33352 0.263858 10 -5.93124e-014 1.09207e-014 -2.63219 -6.08339 -6.54273 13.4831 -21.3502 4.2301 -0.114337 -1.10039 -14.8202 -10 -5.80203e-014 -8.97637e-015 -1.36956 -1.52002 2.77428 -20.5048 -29.6401 -8.62056 0.151922 1.44333 -14.5272 -14.3635 -9.18557 -4.0848 26.1123 38.6472 -15.3605 
24.0263 38.3245 -34.4749 1.90314 2.1791 -35.0057 -2.48177 -20.0997 0.355405 0.0408814 49.7482 -0.257228 1.00743 -30.53 9.83753 -8.26592 -28.2262 4.87056 0.026307 52.8679 0.161568 1.68991 -23.3632 -5.06957 -3.47555 7.26864 0.0770113 5.2515 -2.18949 0.116644 10 -5.93124e-014 1.09207e-014 -2.19405 -6.84342 -5.70879 13.3403 -21.1542 4.16276 -0.133023 -1.17962 -15.9108 -10 -5.80203e-014 -8.97637e-015 -1.35866 -0.244857 1.67815 -20.4745 -29.6073 -8.602 0.14737 1.42389 -14.3278 -14.01 -9.37696 -3.67016 25.6483 39.8279 -14.7028 
24.1277 38.3226 -34.4675 2.05279 2.22049 -36.8504 -2.44014 -20.148 1.43942 0.04032 49.6824 -0.25075 1.35951 -30.6937 10.628 -7.84513 -28.8917 6.22207 0.0254197 52.7294 0.16238 1.86539 -22.9632 -4.57289 -3.64995 7.35288 -0.797036 5.28876 -1.41993 -0.165294 10 -5.93124e-014 1.09207e-014 -1.48171 -8.34528 -4.55954 13.2115 -20.9768 4.1024 -0.12653 -1.17595 -15.8602 -10 -5.80203e-014 -8.97637e-015 -1.25491 0.0433883 0.92091 -20.2664 -29.3801 -8.47466 0.149653 1.46783 -14.7787 -14.6487 -10.0744 -3.38632 26.998 40.6631 -14.59 
24.267 38.3231 -34.4065 2.42055 2.17626 -38.485 -2.93034 -20.2207 1.9394 0.0419225 49.6124 -0.242609 1.87832 -30.8853 11.7951 -8.00245 -29.5565 6.97567 0.0247081 52.5565 0.162659 2.13614 -22.4026 -3.73937 -4.00238 7.54723 -1.56567 5.77674 -2.1978 -0.353235 10 -5.93124e-014 1.09207e-014 -1.75057 -7.80325 -4.33513 13.5603 -21.4559 4.26675 -0.106596 -1.13539 -15.3014 -10 -5.80203e-014 -8.97637e-015 -2.02728 2.11226 1.30914 -20.0526 -29.1453 -8.34447 0.157997 1.46881 -14.7888 -14.3513 -9.22223 -2.58033 25.5621 40.4922 -12.6581 
24.358 38.3269 -34.392 2.44027 2.37055 -39.9759 -2.83025 -20.3228 2.57645 0.0418889 49.5625 -0.233418 2.36504 -30.8477 12.9872 -7.57942 -30.0869 7.70377 0.0246325 52.2885 0.162222 2.34015 -21.9442 -3.07536 -4.04325 7.96975 -2.12658 5.82365 -1.86551 -0.532745 10 -5.93124e-014 1.09207e-014 -0.984156 -9.67775 -3.26026 13.3257 -21.1341 4.15591 -0.132268 -1.18027 -15.9042 -10 -5.80203e-014 -8.97637e-015 -1.92408 2.57245 0.709963 -19.7861 -28.8503 -8.18306 0.165737 1.50056 -15.1152 -13.4204 -9.88292 -2.28317 24.0792 39.8032 -11.2403 
24.4444 38.3304 -34.3533 2.65264 2.46554 -41.5992 -3.05313 -20.4158 2.95132 0.0421257 49.4265 -0.225585 2.90133 -31.0383 14.1581 -7.39372 -30.7472 8.35379 0.0247072 52.0681 0.161635 2.56398 -21.4983 -2.28688 -4.30309 8.1161 -2.92085 5.97797 -1.70412 -0.770931 10 -5.93124e-014 1.09207e-014 -0.232069 -11.0198 -2.56478 13.1015 -20.8247 4.05106 -0.125211 -1.14516 -15.4358 -10 -5.80203e-014 -8.97637e-015 -2.09857 3.3013 0.993979 -19.2715 -28.2734 -7.87428 0.17392 1.5333 -15.4522 -12.7223 -10.0038 -1.57739 22.5295 39.6843 -9.26424 
24.4905 38.3305 -34.3529 2.43474 3.0375 -42.7002 -2.43433 -20.6755 3.3696 0.0393386 49.4861 -0.217674 3.18453 -31.2865 14.6701 -6.54578 -31.2386 8.81389 0.0256552 51.7767 0.160508 2.67198 -21.026 -1.93464 -3.67019 8.30407 -3.29301 5.4205 -1.86842 -0.867955 10 -5.93124e-014 1.09207e-014 0.563087 -11.9505 -3.21144 12.2483 -19.6302 3.66143 -0.210677 -1.44262 -19.5726 -10 -5.80203e-014 -8.97637e-015 -1.60109 4.41563 0.315597 -18.8 -27.7363 -7.59472 0.164083 1.49385 -15.0461 -12.9477 -9.84486 -1.26706 23.9833 39.3378 -9.1133 
24.5181 38.3281 -34.2285 2.49549 3.13604 -44.651 -2.52841 -20.5699 4.03859 0.0471218 49.5523 -0.210313 3.90457 -31.7289 16.0857 -6.36213 -31.7614 9.258 0.026769 51.6101 0.159577 3.02502 -20.6784 -0.487097 -3.66594 8.3142 -3.60498 6.17772 -1.96226 -0.942235 10 -5.93124e-014 1.09207e-014 -0.498267 -11.9446 -2.0717 13.9341 -21.9644 4.44555 -0.120854 -1.12747 -15.1924 -10 -5.80203e-014 -8.97637e-015 -2.53385 5.20237 -0.0260885 -18.0363 -26.8491 -7.1489 0.15944 1.47479 -14.8503 -12.7671 -10.3859 -0.827813 22.4731 40.4065 -7.79836 
24.5577 38.3216 -34.1429 2.80422 3.2697 -45.9258 -2.96101 -20.6388 3.97518 0.0433194 49.3873 -0.201911 4.57756 -31.9487 17.4558 -6.30659 -32.4718 9.64353 0.0275093 51.7334 0.15944 3.20585 -20.1567 0.278506 -3.94229 8.3571 -3.93895 6.377 -1.78554 -1.04577 10 -5.93124e-014 1.09207e-014 -0.0568693 -13.3724 -2.30464 13.7766 -21.7507 4.36982 -0.101172 -1.04314 -14.0353 -10 -5.80203e-014 -8.97637e-015 -2.40204 5.49747 -1.76227 -17.2366 -25.8972 -6.69161 0.11322 1.26691 -12.7235 -13.3199 -9.45542 -0.456469 22.6502 38.9779 -6.93554 
24.5851 38.3384 -34.1065 2.72647 3.76845 -46.5152 -2.36477 -20.8624 4.62768 0.0356071 49.357 -0.194888 4.58209 -31.985 17.4259 -5.9572 -33.0561 9.38002 0.0291291 51.9097 0.159294 3.34502 -19.8069 0.925412 -3.63064 8.77308 -3.60741 5.7407 -1.63142 -0.960651 10 -5.93124e-014 1.09207e-014 0.681068 -15.3356 -4.33631 13.7011 -21.648 4.3337 -0.0951987 -1.01591 -13.6629 -10 -5.80203e-014 -8.97637e-015 -1.47475 5.84158 -3.63534 -16.844 -25.4211 -6.47095 0.105488 1.22813 -12.3286 -12.5385 -9.82612 -0.568466 22.736 38.5318 -7.11587 
24.6358 38.3391 -33.9996 3.4068 3.71319 -47.21 -3.0967 -21.1106 4.65891 0.0289493 49.2009 -0.19316 4.85882 -32.1409 17.9885 -6.78198 -33.9279 8.89403 0.0318537 52.2114 0.159434 3.5414 -19.3522 1.86562 -4.54935 8.85824 -3.94352 5.92345 -1.47711 -1.0772 10 -5.93124e-014 1.09207e-014 1.34627 -16.8216 -6.4818 13.4375 -21.2877 4.20862 -0.0829199 -0.957059 -12.8596 -10 -5.80203e-014 -8.97637e-015 -0.853006 5.98953 -4.1707 -16.6867 -25.2288 -6.38316 0.100647 1.2031 -12.0741 -11.7862 -11.0014 -0.621265 22.2986 39.4865 -7.12285 
24.6236 38.3228 -33.8952 3.55133 4.10147 -47.8403 -3.09827 -21.3194 4.69997 0.0318432 49.231 -0.202913 5.26944 -32.3554 18.7596 -6.59617 -34.4987 9.02259 0.0341364 52.3947 0.15902 3.64962 -19.114 2.41193 -4.45473 8.97189 -3.97734 5.98167 -1.58257 -1.07727 10 -5.93124e-014 1.09207e-014 1.06286 -17.6603 -7.38608 13.9423 -21.9755 4.44943 -0.0706231 -0.893503 -11.9947 -10 -5.80203e-014 -8.97637e-015 -0.418322 6.25103 -5.30311 -16.4872 -24.9835 -6.27245 0.0943292 1.16951 -11.7327 -12.1438 -10.1258 -0.443648 22.6653 38.1027 -6.73171 
24.6022 38.2934 -33.8161 3.78721 4.43341 -48.2414 -2.56853 -21.6612 5.90598 0.0469685 49.3534 -0.22319 4.96464 -32.3978 18.0846 -6.49709 -35.1356 8.98722 0.0349514 52.798 0.159306 3.71859 -18.8697 2.77884 -4.65619 9.11154 -4.63188 6.36739 -1.38596 -1.27023 10 -5.93124e-014 1.09207e-014 0.780862 -18.7657 -7.66416 13.9737 -22.0179 4.46457 -0.0657666 -0.775174 -10.3908 -10 -5.80203e-014 -8.97637e-015 -0.0303467 5.97629 -3.52073 -16.8942 -25.4824 -6.49899 0.167454 1.5075 -15.1866 -12.1566 -9.72436 -0.0198074 22.0453 37.0348 -5.48699 
24.5203 38.2701 -33.6925 3.5822 4.91956 -48.7204 -2.12037 -21.6368 6.13239 0.0515393 49.5758 -0.223782 5.31194 -32.7701 18.6009 -5.84972 -35.5371 8.49837 0.0358963 53.2038 0.159548 3.61057 -18.6624 2.30527 -4.11914 9.3937 -4.6734 5.90667 -1.37909 -1.27403 10 -5.93124e-014 1.09207e-014 0.943568 -19.9152 -8.22379 14.1322 -22.2317 4.54137 -0.0467276 -0.751562 -10.0717 -10 -5.80203e-014 -8.97637e-015 0.728825 6.05886 -3.41853 -17.0609 -25.6848 -6.5926 0.170369 1.5192 -15.307 -12.3788 -9.7013 0.0553103 22.9222 36.8138 -5.56182 
24.4708 38.2242 -33.5856 3.70177 5.44906 -48.8243 -2.02104 -21.9782 5.6608 0.043755 49.6733 -0.228828 5.60414 -33.1648 18.9815 -5.5386 -36.3166 7.82441 0.0382516 53.967 0.161139 3.46933 -18.4202 1.65096 -3.94668 9.5573 -5.20269 6.05426 -1.50808 -1.40537 10 -5.93124e-014 1.09207e-014 0.425286 -20.7973 -7.00496 14.2524 -22.3931 4.59987 -0.0598431 -0.83303 -11.1741 -10 -5.80203e-014 -8.97637e-015 1.20269 5.69031 -4.88891 -16.9088 -25.5001 -6.50714 0.106191 1.23171 -12.365 -11.8229 -10.1221 0.128955 22.0753 37.2502 -5.20851 
24.3989 38.1716 -33.4116 4.51565 5.32725 -48.8664 -2.82504 -22.0475 5.65237 0.0411073 49.4139 -0.249035 5.68257 -33.3157 19.0956 -6.4884 -37.2439 6.81323 0.0432779 55.1328 0.164459 3.41922 -18.3921 1.36634 -5.22063 9.5443 -5.20289 6.37411 -1.46355 -1.41842 10 -5.93124e-014 1.09207e-014 0.392906 -21.9367 -8.19507 14.2681 -22.4142 4.60755 -0.0383002 -0.693076 -9.28227 -10 -5.80203e-014 -8.97637e-015 1.41319 5.85052 -2.95818 -17.6171 -26.353 -6.908 0.147397 1.424 -14.329 -11.725 -9.87334 0.139603 22.5841 36.5107 -5.27581 
24.1914 38.1722 -33.0653 4.58917 5.05433 -49.9053 -3.734 -21.1114 5.01269 0.04235 49.2734 -0.242966 6.86651 -34.2185 20.9662 -6.72432 -37.4387 6.62864 0.0462247 56.3205 0.168184 3.45078 -18.603 1.57344 -5.47242 9.54361 -4.61564 5.90689 -1.11209 -1.26815 10 -5.93124e-014 1.09207e-014 0.140894 -22.4583 -8.21527 14.6281 -22.8945 4.78461 -0.0432228 -0.684332 -9.16439 -10 -5.80203e-014 -8.97637e-015 1.66718 5.61548 -1.96507 -17.8712 -26.6547 -7.05382 0.143921 1.40895 -14.1746 -11.9193 -9.80042 0.132965 23.0973 36.4084 -5.4346 
